<svg width="33" height="33" viewBox="0 0 33 33" fill="none" xmlns="http://www.w3.org/2000/svg">
<g clip-path="url(#clip0_63_667)">
<path d="M3.92578 11.6865H8.41216V13.9435H3.92578V11.6865Z" fill="black"/>
<path d="M3.92578 16.3926H10.8124V18.6496H3.92578V16.3926Z" fill="black"/>
<path d="M30.4615 0H2.53846C1.13871 0 0 1.13899 0 2.5391V21.5227C0 22.9227 1.13871 24.0618 2.53846 24.0618H13.1834C14.4804 29.3523 17.7179 31.7631 19.3242 32.661C20.1835 33.1413 21.3133 33.1108 22.1389 32.5725C23.6809 31.5671 26.8169 28.9926 28.1788 24.0617H30.4615C31.8613 24.0617 33 22.9227 33 21.5226V2.5391C33 1.13899 31.8613 0 30.4615 0ZM2.53846 2.25697H30.4615C30.6171 2.25697 30.7436 2.38354 30.7436 2.5391V6.27479H2.25641V2.5391C2.25641 2.38354 2.38291 2.25697 2.53846 2.25697ZM20.9067 30.6818C20.7715 30.77 20.5732 30.7737 20.4249 30.6907C18.7556 29.7577 14.9605 26.8185 14.8846 19.3856L20.7309 17.0109L26.5745 19.3831C26.4335 26.3327 22.5719 29.5961 20.9067 30.6818C22.5719 29.5961 20.7715 30.77 20.9067 30.6818ZM30.4615 21.8048H28.6437C28.792 20.746 28.8507 19.6734 28.8326 18.6046C28.8248 18.1523 28.5478 17.7484 28.1288 17.5784L21.1551 14.7474C20.8831 14.637 20.5785 14.637 20.3064 14.7475L13.3368 17.5784C12.9199 17.7478 12.6434 18.1489 12.6334 18.599C12.6078 19.7521 12.6611 20.8187 12.7779 21.8048H2.53846C2.38291 21.8048 2.25641 21.6782 2.25641 21.5227V8.5317H30.7436V21.5226C30.7436 21.6782 30.6171 21.8048 30.4615 21.8048Z" fill="black"/>
<path d="M18.8666 25.9513L17.0061 23.9601L18.6546 22.419L19.7434 23.5843L22.9135 20.6104L24.4571 22.2565L20.4627 26.0038C20.096 26.3427 19.3557 26.3779 18.8666 25.9513Z" fill="black"/>
</g>
<defs>
<clipPath id="clip0_63_667">
<rect width="33" height="33" fill="white"/>
</clipPath>
</defs>
</svg>
