<svg width="33" height="33" viewBox="0 0 33 33" fill="none" xmlns="http://www.w3.org/2000/svg">
<path d="M30.4716 18.1939C30.6655 18.1939 30.8431 18.0851 30.9311 17.9123C31.019 17.7394 31.0026 17.5318 30.8885 17.375L28.1565 13.6197C28.0595 13.4864 27.9045 13.4075 27.7396 13.4075H25.0449C24.7602 13.4075 24.5293 13.6384 24.5293 13.9231V17.6784C24.5293 17.9631 24.7602 18.194 25.0449 18.194H30.4715L30.4716 18.1939ZM25.5606 14.4387H27.4771L29.4588 17.1627H25.5606V14.4387ZM29.8667 24.2838H32.2911C32.5758 24.2838 32.8067 24.0529 32.8067 23.7682V18.1921C32.8067 17.6838 32.6614 17.2371 32.3624 16.8263L29.2057 12.4871C28.8766 12.0348 28.3872 11.7857 27.8278 11.7857H23.8251V9.31435C23.8251 9.02959 23.5942 8.79872 23.3095 8.79872H22.1068C22.7835 8.02109 22.7671 7.30715 22.7048 6.97012C22.5607 6.18972 21.8856 5.59347 20.985 5.45115C19.8818 5.27687 18.358 5.76182 16.965 7.45339C17.1207 6.32456 17.4703 5.53385 18.1386 4.65548C18.311 4.42886 18.267 4.10537 18.0404 3.93296C17.8137 3.76048 17.4903 3.80444 17.3178 4.03112C16.4778 5.13527 16.058 6.17683 15.9028 7.67582C14.463 5.80365 12.8552 5.2694 11.7053 5.45122C10.8047 5.59353 10.1296 6.18979 9.9854 6.97018C9.92314 7.30715 9.9067 8.02116 10.5835 8.79878H1.74146C0.887842 8.79878 0.193359 9.4932 0.193359 10.3468C0.193359 11.2004 0.887777 11.8949 1.74146 11.8949H6.83396C7.11891 11.8949 7.35075 12.1267 7.35075 12.4116C7.35075 12.6966 7.11891 12.9284 6.83396 12.9284H4.81813C3.96458 12.9284 3.27009 13.6229 3.27009 14.4765C3.27009 15.3301 3.96451 16.0246 4.81813 16.0246H7.87031C8.15525 16.0246 8.38709 16.2564 8.38709 16.5413C8.38709 16.8263 8.15525 17.0581 7.87031 17.0581H4.00847C3.15492 17.0581 2.46043 17.7525 2.46043 18.6062C2.46043 19.4598 3.15485 20.1542 4.00847 20.1542H9.69613C9.98108 20.1542 10.2129 20.386 10.2129 20.6711C10.2129 20.9561 9.98108 21.1878 9.69613 21.1878H8.31574C7.46219 21.1878 6.76771 21.8823 6.76771 22.7359C6.76771 23.5896 7.46213 24.284 8.31574 24.284H11.6096C11.6883 25.2475 12.2887 26.0653 13.1276 26.4535H0.708984C0.42423 26.4535 0.193359 26.6844 0.193359 26.9692C0.193359 27.2539 0.42423 27.4848 0.708984 27.4848H32.291C32.5758 27.4848 32.8066 27.2539 32.8066 26.9692C32.8066 26.6844 32.5758 26.4535 32.291 26.4535H28.3486C29.1875 26.0653 29.788 25.2475 29.8666 24.284L29.8667 24.2838ZM23.8252 12.8169H27.8279C28.0551 12.8169 28.2381 12.9101 28.3719 13.0937L31.5286 17.4329C31.6993 17.6675 31.7755 17.9016 31.7755 18.192V21.0125H30.9205V22.0437H31.7755V23.2525H29.7458C29.4018 22.2023 28.413 21.4415 27.2494 21.4415C26.0857 21.4415 25.097 22.2024 24.7529 23.2525H23.8252V12.8169ZM20.8241 6.46971C21.294 6.54396 21.6262 6.80744 21.6908 7.15736C21.7649 7.55832 21.4835 8.1928 20.4896 8.79859H17.2544C18.5217 6.88234 19.9328 6.32855 20.8241 6.46971ZM17.811 9.82991V13.7591L16.655 12.8899C16.4715 12.752 16.2189 12.7519 16.0353 12.8899L14.8793 13.759V9.82984H17.811L17.811 9.82991ZM10.9995 7.15742C11.0642 6.80751 11.3963 6.54396 11.8662 6.46977C12.7575 6.32855 14.1686 6.88246 15.4359 8.79872H12.2007C11.2067 8.19293 10.9254 7.55838 10.9995 7.15742ZM11.7304 23.2525H8.31568C8.03073 23.2525 7.79889 23.0207 7.79889 22.7357C7.79889 22.4508 8.03073 22.2189 8.31568 22.2189H9.69607C10.5496 22.2189 11.2441 21.5245 11.2441 20.6709C11.2441 19.8172 10.5497 19.1228 9.69607 19.1228H4.0084C3.72346 19.1228 3.49162 18.8909 3.49162 18.606C3.49162 18.321 3.72346 18.0892 4.0084 18.0892H7.87024C8.72379 18.0892 9.41828 17.3948 9.41828 16.5412C9.41828 15.6875 8.72386 14.9931 7.87024 14.9931H4.81806C4.53312 14.9931 4.30128 14.7613 4.30128 14.4763C4.30128 14.1914 4.53312 13.9595 4.81806 13.9595H6.8339C7.68745 13.9595 8.38194 13.2651 8.38194 12.4114C8.38194 11.5578 7.68752 10.8634 6.8339 10.8634H1.74146C1.45645 10.8634 1.22461 10.6316 1.22461 10.3466C1.22461 10.0617 1.45645 9.82984 1.74146 9.82984H13.8481V14.7918C13.8481 14.9873 13.9586 15.1659 14.1335 15.2532C14.2064 15.2895 14.2852 15.3075 14.3637 15.3075C14.4735 15.3075 14.5826 15.2725 14.6737 15.2039L16.3452 13.9472L18.0169 15.204C18.1731 15.3214 18.3823 15.3405 18.5571 15.2532C18.7319 15.1659 18.8424 14.9873 18.8424 14.7919V9.82991H22.794V23.2525H16.7235C16.3795 22.2024 15.3907 21.4416 14.2271 21.4416C13.0634 21.4416 12.0746 22.2025 11.7306 23.2525H11.7304ZM12.6313 24.0684C12.6313 23.1887 13.347 22.4728 14.2269 22.4728C15.1067 22.4728 15.8225 23.1886 15.8225 24.0684C15.8225 24.9483 15.1067 25.664 14.2269 25.664C13.347 25.664 12.6313 24.9483 12.6313 24.0684ZM15.3262 26.4533C16.165 26.0651 16.7655 25.2474 16.8442 24.2838H24.6321C24.7107 25.2474 25.3112 26.0651 26.15 26.4533H15.3262ZM27.2493 25.664C26.3695 25.664 25.6537 24.9483 25.6537 24.0684C25.6537 23.1886 26.3694 22.4728 27.2493 22.4728C28.1291 22.4728 28.8449 23.1886 28.8449 24.0684C28.8449 24.9483 28.1291 25.664 27.2493 25.664ZM30.4827 28.6571C30.4827 28.9419 30.2518 29.1727 29.9671 29.1727H26.1441C25.8593 29.1727 25.6284 28.9419 25.6284 28.6571C25.6284 28.3724 25.8593 28.1415 26.1441 28.1415H29.9671C30.2518 28.1415 30.4827 28.3724 30.4827 28.6571ZM20.812 28.6571C20.812 28.9419 20.5812 29.1727 20.2964 29.1727H4.77862C4.49387 29.1727 4.26299 28.9419 4.26299 28.6571C4.26299 28.3724 4.49387 28.1415 4.77862 28.1415H20.2965C20.5812 28.1415 20.8121 28.3724 20.8121 28.6571H20.812ZM4.29135 24.2837C5.14497 24.2837 5.83945 23.5892 5.83945 22.7356C5.83945 21.882 5.14504 21.1876 4.29135 21.1876H3.31199C2.45837 21.1876 1.76389 21.8821 1.76389 22.7357C1.76389 23.5893 2.45831 24.2837 3.31199 24.2837H4.29135ZM2.79514 22.7356C2.79514 22.4507 3.02698 22.2188 3.31199 22.2188H4.29135C4.57637 22.2188 4.8082 22.4507 4.8082 22.7357C4.8082 23.0207 4.57637 23.2525 4.29135 23.2525H3.31199C3.02698 23.2525 2.79514 23.0206 2.79514 22.7356Z" fill="black"/>
</svg>
