<svg width="33" height="33" viewBox="0 0 33 33" fill="none" xmlns="http://www.w3.org/2000/svg">
<g clip-path="url(#clip0_63_662)">
<path d="M28.4173 25.6008C33.4318 20.799 33.6122 12.8455 28.8298 7.81813C28.6429 7.61833 28.34 7.5861 28.1144 7.74079L25.33 9.55837C25.0722 9.72595 25.0013 10.074 25.1689 10.3318C25.1947 10.3705 25.2205 10.4027 25.2527 10.4349C28.6042 13.5093 28.8234 18.7172 25.749 22.0687C25.6136 22.217 25.4654 22.3652 25.3171 22.507L11.3179 8.50134C11.9753 8.33376 12.6521 8.24997 13.3289 8.24997H19.6066V11.5629C19.6066 11.8722 19.858 12.1236 20.1673 12.1236C20.2769 12.1236 20.3865 12.0914 20.4767 12.0334L28.8685 6.53552C29.1263 6.36794 29.1972 6.01989 29.0296 5.76208C28.9845 5.69763 28.933 5.64606 28.8685 5.60095L20.4703 0.0902044C20.2124 -0.0773737 19.8644 -0.00647526 19.6968 0.251337C19.6388 0.341572 19.6066 0.451142 19.6066 0.560712V3.88005H13.3289C11.4533 3.88005 9.60346 4.29255 7.91479 5.09821L3.72534 0.908759C3.5062 0.689618 3.1517 0.689618 2.93256 0.908759L0.908735 2.93259C0.689595 3.15173 0.689595 3.50622 0.908735 3.72536L4.58901 7.40563C-0.425445 12.2074 -0.605913 20.1609 4.17651 25.1882C4.36342 25.3816 4.66635 25.4203 4.89194 25.2656L7.66987 23.4416C7.92768 23.274 7.99858 22.9259 7.831 22.6681C7.80522 22.6295 7.77299 22.5972 7.74077 22.565C4.3892 19.4906 4.17006 14.2828 7.24448 10.9312C7.38627 10.783 7.52807 10.6347 7.67631 10.4929L21.682 24.4986C21.0246 24.6662 20.3478 24.75 19.671 24.75H13.3998V21.4306C13.3998 21.1213 13.1484 20.8699 12.839 20.8699C12.7294 20.8699 12.6263 20.9021 12.5361 20.9601L4.13784 26.4644C3.88002 26.632 3.80913 26.98 3.9767 27.2379C4.02182 27.3023 4.07338 27.3603 4.13784 27.399L12.5296 32.9033C12.6199 32.9613 12.7294 32.9935 12.839 32.9935C13.1484 32.9935 13.3998 32.7422 13.3998 32.4328V29.1134H19.6775C21.5531 29.1134 23.4029 28.7009 25.0915 27.8953L29.281 32.0847C29.5001 32.3039 29.8546 32.3039 30.0738 32.0847L32.0976 30.0609C32.3167 29.8418 32.3167 29.4873 32.0976 29.2681L28.4173 25.6008ZM29.0425 16.5C29.0361 14.1281 28.1402 11.8465 26.5224 10.1127L28.3271 8.92673C32.3812 13.5545 32.0718 20.5541 27.6181 24.8015L26.1099 23.2933C27.9855 21.5338 29.0425 19.0716 29.0425 16.5ZM13.3224 4.99509H20.1609C20.4703 4.99509 20.7216 4.74372 20.7216 4.43435V1.59841L27.5343 6.05856L20.7216 10.5252V7.68923C20.7216 7.37985 20.4703 7.12849 20.1609 7.12849H13.3224C12.3298 7.12849 11.3501 7.28317 10.4091 7.59255L8.75913 5.9361C10.2029 5.31735 11.7562 4.99509 13.3224 4.99509ZM3.95737 16.5C3.96381 18.8718 4.85971 21.1535 6.47749 22.8873L4.6728 24.0732C0.618696 19.439 0.928072 12.4394 5.38178 8.19196L6.88999 9.70017C5.0144 11.4662 3.95737 13.9283 3.95737 16.5ZM19.671 28.0049H12.839C12.5296 28.0049 12.2783 28.2562 12.2783 28.5656V31.408L5.46557 26.9349L12.2783 22.4683V25.3043C12.2783 25.6136 12.5296 25.865 12.839 25.865H19.671C20.6636 25.865 21.6433 25.7103 22.5843 25.4009L24.2343 27.0509C22.8035 27.6826 21.2437 28.0049 19.671 28.0049ZM29.6742 30.9052L26.1228 27.3539L25.3042 26.5353L23.7187 24.9498L22.8744 24.1054L8.54643 9.77751L7.74721 8.97829L6.22612 7.4572L5.4269 6.65798L2.09467 3.32575L3.32573 2.0947L6.87709 5.64606L7.69565 6.46462L9.27475 8.04372L10.1191 8.8945L24.4406 23.216L25.2398 24.0152L26.7609 25.5363L27.5601 26.3355L30.8923 29.6677L29.6742 30.9052Z" fill="black"/>
</g>
<defs>
<clipPath id="clip0_63_662">
<rect width="33" height="33" fill="white"/>
</clipPath>
</defs>
</svg>
