<svg width="33" height="33" viewBox="0 0 33 33" fill="none" xmlns="http://www.w3.org/2000/svg">
<path d="M30.7703 22.0092H27.2896C28.6569 19.7683 29.3372 17.1539 29.2458 14.5241L30.3956 14.286C30.7006 14.2302 30.811 13.8205 30.5751 13.6191L29.4411 12.6041C31.6871 9.45874 33.0584 5.23603 30.7261 2.24263C27.9812 -0.846414 23.4113 0.168078 19.4831 1.9689C9.58016 -0.869939 0.333452 7.86198 2.45667 17.816C0.578567 21.5324 0.606475 24.4547 2.54149 26.0525C3.23616 26.6261 4.12355 26.9127 5.22093 26.9126C6.11348 26.9126 7.1455 26.7223 8.32467 26.3433C11.4009 28.3656 15.3084 29.0256 18.8878 28.1525V32.3726C18.8878 32.5861 19.061 32.7593 19.2745 32.7593H30.7807C30.9943 32.7593 31.1674 32.5861 31.1674 32.3726V25.2044C31.6118 25.0416 31.9304 24.6158 31.9304 24.1158V23.1693C31.9304 22.5296 31.4099 22.0091 30.7702 22.0091L30.7703 22.0092ZM31.157 23.1693V24.1158C31.157 24.3291 30.9836 24.5026 30.7703 24.5026H27.7099V22.7826H30.7703C30.9836 22.7826 31.157 22.9561 31.157 23.1693ZM19.285 24.5025C19.0717 24.5025 18.8983 24.329 18.8983 24.1158V23.1693C18.8983 22.956 19.0717 22.7826 19.285 22.7826H22.3455V24.5025H19.285ZM23.1189 24.8892V22.7826C23.2146 22.7826 27.0077 22.7826 26.9364 22.7826V27.1826H23.1189V24.8892ZM28.4781 15.2352C28.4652 15.8597 28.4078 16.4844 28.3048 17.1H23.1981C21.1617 17.0157 21.1621 14.1138 23.1981 14.0298H23.7244L23.6164 15.1793C23.5981 15.3476 23.7032 15.5167 23.8623 15.5761C23.9315 15.6022 24.0072 15.6088 24.0798 15.5942L28.4771 14.6832C28.4817 14.8704 28.4819 15.0499 28.4781 15.2352V15.2352ZM24.0013 11.0817H22.7262C21.5108 11.0817 20.5218 10.0928 20.5218 8.87731V7.43717C20.5218 6.79747 20.0014 6.27701 19.3617 6.27701H18.3884C17.7678 6.27701 17.2629 5.77208 17.2629 5.15147C17.2629 4.60406 17.6542 4.13781 18.1934 4.04294L21.3051 3.49528C23.4083 4.52098 25.2157 6.13515 26.4744 8.10761C26.2663 8.52726 26.0381 8.93757 25.7858 9.33215L24.8626 8.50573C24.7538 8.40841 24.5995 8.38057 24.4635 8.43387C24.3277 8.48711 24.2333 8.6124 24.2197 8.75768L24.0013 11.0817ZM26.903 7.13559C26.885 7.18148 26.866 7.22692 26.8476 7.27262C25.9711 6.00676 24.8826 4.89339 23.6396 3.99588C26.3964 3.51964 27.8342 4.36043 26.903 7.13559ZM30.1283 2.73351C32.2744 5.57473 30.7686 9.48168 28.6125 12.4284C28.4931 12.5888 28.5158 12.8138 28.6648 12.9472L29.488 13.6841L24.4353 14.7307L24.9179 9.59332L25.6026 10.2063C25.675 10.271 25.7683 10.3058 25.8647 10.3048C26.1287 10.3092 26.2373 10.041 26.3672 9.85654C26.5621 9.55742 26.7463 9.25114 26.9159 8.93686C27.1903 8.43207 27.432 7.90954 27.6406 7.37407C28.6981 4.1429 27.0625 2.35968 22.742 3.39976C22.0507 2.98081 21.3231 2.62136 20.5689 2.33067C24.8735 0.503557 28.4074 0.638006 30.1283 2.73351ZM12.198 18.9862H12.6279C13.5302 18.9862 14.2642 19.7203 14.2642 20.6225V22.5901C12.0319 23.4734 9.59143 24.2603 7.25836 24.563C6.32656 23.7421 5.51697 22.7852 4.85961 21.732C5.8081 21.5544 6.44245 20.5054 6.14751 19.579L5.82582 18.4804C5.61403 17.757 4.93972 17.2518 4.18601 17.2518H3.13381C2.2858 12.7837 4.05904 8.0195 7.52036 5.17905H9.49211C11.2589 5.17905 12.6962 6.61642 12.6962 8.38321C12.6962 8.59674 12.8693 8.76993 13.0829 8.76993C14.4593 8.76993 15.579 9.88967 15.579 11.266V11.9235C15.579 13.2998 14.4593 14.4196 13.0829 14.4196H12.1979C10.9388 14.4196 9.91454 15.4439 9.91454 16.7029C9.91454 17.9619 10.9388 18.9862 12.1979 18.9862H12.198ZM14.2573 23.6527C14.2228 24.0328 14.058 24.3857 13.7848 24.659L11.4245 27.0193C10.6742 26.7545 9.95134 26.4144 9.26395 26.014C10.95 25.3745 12.6787 24.5006 14.2573 23.6527ZM4.43473 20.9944C3.93451 20.0575 3.55147 19.0606 3.29752 18.0253H4.18607C4.59864 18.0253 4.9677 18.3018 5.08358 18.6978L5.40527 19.7964C5.4888 20.0818 5.43453 20.3819 5.25619 20.6199C5.06405 20.8803 4.75539 21.0119 4.43473 20.9944V20.9944ZM3.99342 21.7945C4.60141 22.8375 5.34494 23.7925 6.20436 24.6378C5.36731 24.6483 4.76125 24.5146 4.43847 24.2349C3.95333 23.8146 3.80187 22.9485 3.99342 21.7944V21.7945ZM3.03397 25.4561C1.54092 24.2232 1.45171 21.9452 2.75811 18.9833C2.94342 19.5834 3.17049 20.1704 3.43732 20.738C1.95593 26.3547 6.19701 25.8039 10.3704 24.7193C8.16986 25.7247 4.69345 26.907 3.03404 25.4561H3.03397ZM15.7053 27.7558C14.5275 27.7558 13.3688 27.5946 12.2546 27.2829L14.3316 25.2059C14.8711 24.6722 15.0776 23.976 15.0376 23.2295C15.493 22.9807 15.9475 22.7289 16.4005 22.4766C16.8335 22.2168 16.4896 21.5772 16.034 21.7956C15.7016 21.9669 15.4093 22.1027 15.0377 22.2662V20.6225C15.0377 19.2938 13.9567 18.2128 12.6279 18.2128H12.198C11.3655 18.2128 10.6882 17.5355 10.6882 16.7029C10.6882 15.8704 11.3655 15.1931 12.198 15.1931H13.0831C14.8859 15.1931 16.3526 13.7264 16.3526 11.9236V11.2661C16.3526 9.58842 15.0824 8.20177 13.4531 8.01744C13.2679 5.99496 11.5622 4.40574 9.49224 4.40574H8.5442C11.7047 2.18366 16.2557 1.55988 19.9841 2.94246L18.0593 3.28123C15.7912 3.74239 16.0764 6.98683 18.3884 7.05045H19.3616C19.5749 7.05045 19.7483 7.22389 19.7483 7.43717V8.87731C19.7483 10.5193 21.0842 11.8551 22.7261 11.8551H23.9286L23.797 13.2564H23.1981C21.9251 13.2564 20.8896 14.292 20.8896 15.565C20.8896 16.8379 21.9251 17.8735 23.1981 17.8735H28.1514C27.812 19.3399 27.2143 20.7373 26.3744 22.0091C24.6034 22.0108 21.0506 22.008 19.285 22.0091C18.6453 22.0091 18.1248 22.5296 18.1248 23.1693C18.1327 23.3622 18.1016 24.192 18.1524 24.3647C18.2333 24.747 18.5214 25.0726 18.8878 25.2059V27.3558C17.8524 27.6212 16.7832 27.7557 15.7053 27.7557L15.7053 27.7558ZM30.3941 31.9859H19.6613V25.276H22.3455V27.5694C22.3455 27.783 22.5187 27.9561 22.7322 27.9561H27.3231C27.5367 27.9561 27.7099 27.783 27.7099 27.5694V25.276H30.3941V31.9859Z" fill="black"/>
<path d="M25.1467 30.2344C25.1467 30.8741 25.6672 31.3945 26.3069 31.3945H28.3393C29.8778 31.331 29.8784 29.138 28.3393 29.0742H26.3069C25.6672 29.0742 25.1467 29.5947 25.1467 30.2344ZM28.726 30.2344C28.726 30.4477 28.5526 30.6211 28.3393 30.6211H26.3069C26.0936 30.6211 25.9202 30.4477 25.9202 30.2344C25.9202 30.0211 26.0936 29.8477 26.3069 29.8477H28.3393C28.5526 29.8477 28.726 30.0211 28.726 30.2344Z" fill="black"/>
</svg>
